<svg width="42" height="42" viewBox="0 0 42 42" fill="none" xmlns="http://www.w3.org/2000/svg">
<rect x="1.25" y="1.25" width="39.5" height="39.5" rx="6.75" stroke="black" stroke-width="2.5"/>
<path d="M24.019 8.0996L32.468 30.6299C32.8227 31.5451 33 32.2315 33 32.6891C33 33.6581 32.395 34.533 31.185 35.3136C30.4757 35.7712 29.9125 36 29.4952 36C29.0989 36 28.7651 35.8789 28.4939 35.6366C28.2435 35.3943 28.0558 35.1386 27.9306 34.8694C27.8263 34.6003 27.6698 34.1965 27.4612 33.6581L25.834 29.2974H17.166L15.5388 33.6581C15.3302 34.1965 15.1633 34.5868 15.0381 34.8291C14.9338 35.0713 14.746 35.3271 14.4748 35.5962C14.2245 35.8385 13.8907 35.9596 13.4735 35.9596C13.0771 35.9596 12.5243 35.7308 11.815 35.2732C10.605 34.5195 10 33.6581 10 32.6891C10 32.2315 10.1773 31.5451 10.532 30.6299L18.981 8.05922C19.2104 7.44011 19.5546 6.94213 20.0136 6.56528C20.4934 6.18843 20.9941 6 21.5156 6C22.6422 6 23.4766 6.69987 24.019 8.0996ZM21.4844 17.79L19.419 23.3217H23.581L21.4844 17.79Z" fill="black"/>
</svg>
