<svg width="23" height="29" viewBox="0 0 23 29" fill="none" xmlns="http://www.w3.org/2000/svg">
<path d="M11.4029 14.016C13.2153 14.016 14.7844 13.366 16.0669 12.0835C17.349 10.8012 17.9992 9.23227 17.9992 7.41971C17.9992 5.60777 17.3492 4.03862 16.0667 2.75593C14.7842 1.47387 13.2151 0.823853 11.4029 0.823853C9.59035 0.823853 8.02141 1.47387 6.73914 2.75614C5.45687 4.03841 4.80664 5.60756 4.80664 7.41971C4.80664 9.23227 5.45687 10.8014 6.73914 12.0837C8.02183 13.3658 9.59098 14.016 11.4029 14.016ZM7.87411 3.8909C8.85801 2.907 10.0122 2.42873 11.4029 2.42873C12.7934 2.42873 13.9478 2.907 14.9319 3.8909C15.9158 4.87501 16.3943 6.02941 16.3943 7.41971C16.3943 8.81042 15.9158 9.96461 14.9319 10.9487C13.9478 11.9328 12.7934 12.4111 11.4029 12.4111C10.0126 12.4111 8.85843 11.9326 7.87411 10.9487C6.88999 9.96482 6.41152 8.81042 6.41152 7.41971C6.41152 6.02941 6.88999 4.87501 7.87411 3.8909Z" fill="#8338CD"/>
<path d="M7.87411 3.8909C8.85801 2.907 10.0122 2.42873 11.4029 2.42873C12.7934 2.42873 13.9478 2.907 14.9319 3.8909C15.9158 4.87501 16.3943 6.02941 16.3943 7.41971C16.3943 8.81042 15.9158 9.96461 14.9319 10.9487C13.9478 11.9328 12.7934 12.4111 11.4029 12.4111C10.0126 12.4111 8.85843 11.9326 7.87411 10.9487C6.88999 9.96482 6.41152 8.81042 6.41152 7.41971C6.41152 6.02941 6.88999 4.87501 7.87411 3.8909Z" fill="#8338CD"/>
<path d="M22.9446 21.8826C22.9076 21.3489 22.8328 20.7668 22.7227 20.1521C22.6115 19.5328 22.4684 18.9474 22.297 18.4123C22.1199 17.8592 21.8794 17.313 21.5816 16.7896C21.273 16.2464 20.9103 15.7733 20.5033 15.3841C20.0777 14.9768 19.5566 14.6494 18.954 14.4106C18.3535 14.173 17.688 14.0527 16.9761 14.0527C16.6966 14.0527 16.4262 14.1674 15.9041 14.5074C15.5827 14.7169 15.2068 14.9593 14.7873 15.2274C14.4285 15.4559 13.9425 15.6701 13.3422 15.864C12.7566 16.0535 12.1619 16.1496 11.5748 16.1496C10.9881 16.1496 10.3935 16.0535 9.80738 15.864C9.20771 15.6703 8.72151 15.4562 8.36338 15.2276C7.9478 14.962 7.5717 14.7196 7.24555 14.5071C6.72382 14.1672 6.45345 14.0525 6.17389 14.0525C5.46182 14.0525 4.79655 14.173 4.19626 14.4108C3.59409 14.6492 3.07278 14.9766 2.64675 15.3843C2.23973 15.7737 1.87701 16.2466 1.56862 16.7896C1.27129 17.313 1.03059 17.859 0.85341 18.4125C0.682287 18.9476 0.539162 19.5328 0.428005 20.1521C0.317684 20.766 0.243092 21.3483 0.20611 21.8832C0.169754 22.4062 0.151367 22.9505 0.151367 23.5004C0.151367 24.93 0.605814 26.0873 1.50196 26.9408C2.38704 27.7831 3.55794 28.2101 4.9823 28.2101H18.169C19.5929 28.2101 20.7638 27.7831 21.6491 26.9408C22.5455 26.0879 22.9999 24.9302 22.9999 23.5002C22.9997 22.9484 22.9811 22.4041 22.9446 21.8826ZM20.5426 25.7781C19.9577 26.3347 19.1813 26.6053 18.1688 26.6053H4.9823C3.96956 26.6053 3.19313 26.3347 2.60852 25.7783C2.03497 25.2323 1.75624 24.487 1.75624 23.5004C1.75624 22.9872 1.77317 22.4806 1.80702 21.9941C1.84003 21.5169 1.90752 20.9927 2.0076 20.4356C2.10643 19.8855 2.23221 19.3692 2.38181 18.9018C2.52536 18.4536 2.72113 18.0098 2.96392 17.5823C3.19564 17.1749 3.46225 16.8253 3.75644 16.5437C4.03161 16.2802 4.37846 16.0646 4.78715 15.9029C5.16512 15.7533 5.5899 15.6714 6.05103 15.659C6.10724 15.6889 6.20732 15.746 6.36946 15.8517C6.69938 16.0667 7.07965 16.312 7.50004 16.5805C7.97392 16.8826 8.58444 17.1555 9.31386 17.391C10.0596 17.6321 10.8201 17.7545 11.575 17.7545C12.3299 17.7545 13.0907 17.6321 13.836 17.3912C14.566 17.1553 15.1763 16.8826 15.6508 16.5801C16.081 16.3051 16.4507 16.0669 16.7806 15.8517C16.9427 15.7462 17.0428 15.6889 17.099 15.659C17.5603 15.6714 17.9851 15.7533 18.3633 15.9029C18.7718 16.0646 19.1186 16.2804 19.3938 16.5437C19.688 16.8251 19.9546 17.1747 20.1863 17.5826C20.4293 18.0098 20.6253 18.4538 20.7686 18.9016C20.9184 19.3696 21.0444 19.8857 21.1431 20.4354C21.2429 20.9935 21.3106 21.518 21.3436 21.9943V21.9948C21.3777 22.4793 21.3948 22.9858 21.395 23.5004C21.3948 24.4872 21.1161 25.2323 20.5426 25.7781Z" fill="#8338CD"/>
<path d="M20.5426 25.7781C19.9577 26.3347 19.1813 26.6053 18.1688 26.6053H4.9823C3.96956 26.6053 3.19313 26.3347 2.60852 25.7783C2.03497 25.2323 1.75624 24.487 1.75624 23.5004C1.75624 22.9872 1.77317 22.4806 1.80702 21.9941C1.84003 21.5169 1.90752 20.9927 2.0076 20.4356C2.10643 19.8855 2.23221 19.3692 2.38181 18.9018C2.52536 18.4536 2.72113 18.0098 2.96392 17.5823C3.19564 17.1749 3.46225 16.8253 3.75644 16.5437C4.03161 16.2802 4.37846 16.0646 4.78715 15.9029C5.16512 15.7533 5.5899 15.6714 6.05103 15.659C6.10724 15.6889 6.20732 15.746 6.36946 15.8517C6.69938 16.0667 7.07965 16.312 7.50004 16.5805C7.97392 16.8826 8.58444 17.1555 9.31386 17.391C10.0596 17.6321 10.8201 17.7545 11.575 17.7545C12.3299 17.7545 13.0907 17.6321 13.836 17.3912C14.566 17.1553 15.1763 16.8826 15.6508 16.5801C16.081 16.3051 16.4507 16.0669 16.7806 15.8517C16.9427 15.7462 17.0428 15.6889 17.099 15.659C17.5603 15.6714 17.9851 15.7533 18.3633 15.9029C18.7718 16.0646 19.1186 16.2804 19.3938 16.5437C19.688 16.8251 19.9546 17.1747 20.1863 17.5826C20.4293 18.0098 20.6253 18.4538 20.7686 18.9016C20.9184 19.3696 21.0444 19.8857 21.1431 20.4354C21.2429 20.9935 21.3106 21.518 21.3436 21.9943V21.9948C21.3777 22.4793 21.3948 22.9858 21.395 23.5004C21.3948 24.4872 21.1161 25.2323 20.5426 25.7781Z" fill="#8338CD"/>
</svg>
