<svg width="23" height="23" viewBox="0 0 23 23" fill="none" xmlns="http://www.w3.org/2000/svg">
<path d="M22.2068 20.8823L15.8137 14.4892C17.0521 12.9596 17.7977 11.0158 17.7977 8.89887C17.7977 3.99232 13.8054 0 8.89883 0C3.99228 0 0 3.99228 0 8.89883C0 13.8054 3.99232 17.7977 8.89887 17.7977C11.0158 17.7977 12.9596 17.0521 14.4892 15.8137L20.8823 22.2069C21.065 22.3895 21.3048 22.4813 21.5446 22.4813C21.7844 22.4813 22.0242 22.3895 22.2069 22.2069C22.5731 21.8406 22.5731 21.2486 22.2068 20.8823ZM8.89887 15.9242C5.02458 15.9242 1.87346 12.7731 1.87346 8.89883C1.87346 5.02453 5.02458 1.87341 8.89887 1.87341C12.7732 1.87341 15.9243 5.02453 15.9243 8.89883C15.9243 12.7731 12.7731 15.9242 8.89887 15.9242Z" fill="#8338CD"/>
<circle cx="8.8999" cy="8.90002" r="6.5" stroke="#8338CD" stroke-width="1.1"/>
</svg>
