<svg width="61" height="61" viewBox="0 0 61 61" fill="none" xmlns="http://www.w3.org/2000/svg">
<path d="M10.9685 39.34C12.9809 39.0436 13.6703 37.7965 13.7635 37.21V7.66782C13.7635 6.11199 15.1299 5.47608 15.8131 5.3526C21.6824 4.39565 35.5452 2.18539 44.0417 1C45.6814 1.22226 46.0292 2.63609 45.9981 3.31521V24.5226H41.5263V13.0391L18.049 17.0213V45.7299C16.4093 51.8792 9.54002 52.3669 6.31034 51.8421C4.54023 51.626 1 49.9159 1 44.8039C2.49062 37.7656 8.45311 39.7104 10.9685 39.34Z" fill="black" stroke="black"/>
<rect x="24.6814" y="39.5564" width="4.69868" height="14.6599" transform="rotate(-46.2789 24.6814 39.5564)" fill="black"/>
<rect x="35.2762" y="49.6885" width="4.69868" height="25.8158" transform="rotate(-136.279 35.2762 49.6885)" fill="black"/>
</svg>
