<svg width="23" height="24" viewBox="0 0 23 24" fill="none" xmlns="http://www.w3.org/2000/svg">
<path d="M22.2132 21.7874L15.8201 15.3942C17.0584 13.8646 17.804 11.9209 17.804 9.8039C17.804 4.89735 13.8117 0.905029 8.90517 0.905029C3.99863 0.905029 0.00634766 4.89731 0.00634766 9.80386C0.00634766 14.7104 3.99867 18.7027 8.90522 18.7027C11.0222 18.7027 12.9659 17.9571 14.4956 16.7188L20.8887 23.1119C21.0713 23.2945 21.3111 23.3864 21.551 23.3864C21.7908 23.3864 22.0306 23.2945 22.2132 23.1119C22.5795 22.7456 22.5795 22.1536 22.2132 21.7874ZM8.90522 16.8293C5.03092 16.8293 1.87981 13.6782 1.87981 9.80386C1.87981 5.92956 5.03092 2.77844 8.90522 2.77844C12.7795 2.77844 15.9306 5.92956 15.9306 9.80386C15.9306 13.6782 12.7795 16.8293 8.90522 16.8293Z" fill="black"/>
</svg>
