<svg width="61" height="61" viewBox="0 0 61 61" fill="none" xmlns="http://www.w3.org/2000/svg">
<path d="M10.9685 40.0917C12.9809 39.7896 13.6703 38.518 13.7635 37.92V7.79856C13.7635 6.21223 15.1299 5.56385 15.8131 5.43795C21.6824 4.46223 35.5452 2.20863 44.0417 1C45.6814 1.22662 46.0292 2.66816 45.9981 3.36061V24.9838H41.5263V13.2752L18.049 17.3354V46.607C16.4093 52.8768 9.54002 53.3741 6.31034 52.839C4.54023 52.6187 1 50.875 1 45.6628C2.49062 38.4865 8.45311 40.4694 10.9685 40.0917Z" fill="black" stroke="black"/>
<path fill-rule="evenodd" clip-rule="evenodd" d="M43.6108 58.6997C51.9149 58.6997 58.6466 51.968 58.6466 43.6639C58.6466 35.3599 51.9149 28.6282 43.6108 28.6282C35.3068 28.6282 28.5751 35.3599 28.5751 43.6639C28.5751 51.968 35.3068 58.6997 43.6108 58.6997ZM43.6109 52.3095C42.3652 52.3095 41.3555 51.2998 41.3555 50.0542V45.9193H37.2206C35.975 45.9193 34.9653 44.9096 34.9653 43.6639C34.9653 42.4183 35.975 41.4086 37.2206 41.4086H41.3555V37.2737C41.3555 36.0281 42.3652 35.0184 43.6109 35.0184C44.8565 35.0184 45.8662 36.0281 45.8662 37.2737V41.4086H50.0011C51.2467 41.4086 52.2564 42.4183 52.2564 43.6639C52.2564 44.9096 51.2467 45.9193 50.0011 45.9193H45.8662V50.0542C45.8662 51.2998 44.8565 52.3095 43.6109 52.3095Z" fill="black"/>
</svg>
