<svg width="29" height="28" viewBox="0 0 29 28" fill="none" xmlns="http://www.w3.org/2000/svg">
<path d="M27.4662 13.6465L28.0823 13.0304L27.4662 13.6465L27.4662 13.6465ZM27.4662 13.6465C27.4662 13.6465 27.4662 13.6465 27.4662 13.6465L27.4562 13.6565L27.4559 13.6568L27.4459 13.6668C27.4459 13.6669 27.4459 13.6669 27.4458 13.6668L27.4559 13.6568L27.4562 13.6565L27.4662 13.6465ZM16.4313 2.65177L25.2276 11.4485V13.5807V24.84C25.2276 25.7492 24.4905 26.4863 23.5813 26.4863H19.4993V18.6402C19.4993 16.6145 17.8572 14.9724 15.8315 14.9724H12.5102C10.4846 14.9724 8.84243 16.6145 8.84243 18.6402V26.4863H4.76043C3.85118 26.4863 3.11408 25.7492 3.11408 24.84V13.5807V11.4485L11.9104 2.65177C13.1565 1.40608 15.1852 1.40608 16.4313 2.65177Z" stroke="black" stroke-width="1.8"/>
</svg>
