<svg width="29" height="28" viewBox="0 0 29 28" fill="none" xmlns="http://www.w3.org/2000/svg">
<path d="M28.0823 12.8543L17.0676 1.83911C15.4701 0.242106 12.8717 0.242106 11.2741 1.83911L0.259479 12.8543C-0.0864929 13.2003 -0.0864929 13.761 0.259479 14.107C0.604897 14.453 1.1662 14.453 1.51162 14.107L2.21408 13.4045V24.6638C2.21408 26.0701 3.35413 27.2102 4.76043 27.2102H9.18887C9.4946 27.2102 9.74243 26.9624 9.74243 26.6566V18.464C9.74243 16.9354 10.9816 15.6963 12.5102 15.6963H15.8315C17.3601 15.6963 18.5993 16.9354 18.5993 18.464V26.6566C18.5993 26.9624 18.8471 27.2102 19.1529 27.2102H23.5813C24.9876 27.2102 26.1276 26.0701 26.1276 24.6638V13.4045L26.8301 14.107C27.0028 14.2797 27.2298 14.3666 27.4562 14.3666C27.6826 14.3666 27.9095 14.2797 28.0823 14.107C28.4282 13.761 28.4282 13.2003 28.0823 12.8543V12.8543Z" fill="#8338CD"/>
</svg>
