<svg width="103" height="95" viewBox="0 0 103 95" fill="none" xmlns="http://www.w3.org/2000/svg">
<path fill-rule="evenodd" clip-rule="evenodd" d="M72.0927 38.5433C73.5799 35.1568 74.209 31.4558 73.9241 27.7681C73.6393 24.0805 72.4495 20.5199 70.4599 17.402C68.4704 14.284 65.7426 11.7048 62.5182 9.89283C59.2938 8.08088 55.6723 7.09211 51.9744 7.01409C48.2766 6.93607 44.6166 7.77122 41.3186 9.44556C38.0206 11.1199 35.1865 13.5817 33.0672 16.613C30.948 19.6443 29.609 23.1515 29.1689 26.8239C28.7288 30.4962 29.2012 34.2205 30.5442 37.6667L24.0135 40.2118C24.0127 40.2098 24.012 40.2079 24.0112 40.2059C23.1528 38.0018 22.5658 35.7109 22.2568 33.3836C21.9322 30.9399 21.914 28.456 22.2096 25.9899C22.7868 21.173 24.5431 16.5729 27.3228 12.5969C30.1025 8.62097 33.8199 5.39191 38.1457 3.19578C42.4714 0.999648 47.272 -0.0957672 52.1223 0.00656479C56.9725 0.108897 61.7226 1.40582 65.9519 3.78245C70.1812 6.15907 73.7591 9.54205 76.3686 13.6317C78.9782 17.7214 80.5389 22.3915 80.9124 27.2284C81.1037 29.7048 80.9807 32.1857 80.5534 34.6136C80.1465 36.9253 79.4637 39.189 78.5133 41.3546C78.5123 41.3569 78.5113 41.3592 78.5103 41.3615L72.0927 38.5433Z" fill="black"/>
<path d="M53.9463 48.9885C50.3795 43.7077 45.1987 39.7239 39.1791 37.6331C33.1594 35.5423 26.6246 35.4569 20.5523 37.3897C14.4801 39.3225 9.19699 43.1696 5.49351 48.3554C1.79002 53.5411 -0.134702 59.7867 0.0073326 66.1575C0.149368 72.5284 2.35052 78.6819 6.28144 83.6975C10.2124 88.713 15.6617 92.3209 21.814 93.9811C27.9664 95.6414 34.4909 95.2649 40.4114 92.9079C46.3319 90.5509 51.33 86.3401 54.6578 80.9056L49.1439 77.5291C46.5454 81.7725 42.6428 85.0603 38.0199 86.9008C33.397 88.7412 28.3025 89.0352 23.4986 87.7388C18.6947 86.4424 14.4397 83.6253 11.3704 79.7091C8.30099 75.7928 6.58227 70.9879 6.47137 66.0134C6.36046 61.0389 7.86334 56.1622 10.7551 52.113C13.6469 48.0639 17.7721 45.06 22.5134 43.5508C27.2548 42.0416 32.3574 42.1082 37.0577 43.7408C41.758 45.3734 45.8033 48.484 48.5883 52.6074L53.9463 48.9885Z" fill="white"/>
<path fill-rule="evenodd" clip-rule="evenodd" d="M49.1439 77.5291C49.1424 77.5316 49.1409 77.534 49.1394 77.5365C46.5409 81.7763 42.6401 85.0614 38.0199 86.9008C33.397 88.7412 28.3025 89.0352 23.4986 87.7388C18.6947 86.4424 14.4397 83.6253 11.3704 79.7091C8.30099 75.7928 6.58227 70.9879 6.47137 66.0134C6.36046 61.0389 7.86334 56.1622 10.7551 52.113C13.6469 48.0639 17.7721 45.06 22.5134 43.5508C27.2548 42.0416 32.3574 42.1082 37.0577 43.7408C41.7553 45.3724 45.7986 48.4805 48.5835 52.6003C48.5851 52.6027 48.5867 52.605 48.5883 52.6074L53.9463 48.9885C52.618 47.0219 51.066 45.2353 49.3301 43.6592C46.4046 41.0031 42.957 38.9453 39.1791 37.6331C33.1594 35.5423 26.6246 35.4569 20.5523 37.3897C14.4801 39.3225 9.19699 43.1696 5.49351 48.3554C1.79002 53.5411 -0.134702 59.7867 0.00733259 66.1575C0.149368 72.5284 2.35052 78.6819 6.28144 83.6975C10.2124 88.713 15.6617 92.3209 21.814 93.9811C27.9664 95.6414 34.4909 95.2649 40.4114 92.9079C44.1271 91.4286 47.4795 89.2192 50.2838 86.4353C51.9477 84.7835 53.4186 82.9294 54.6578 80.9056L49.1439 77.5291Z" fill="black"/>
<path fill-rule="evenodd" clip-rule="evenodd" d="M73.5 88C85.9264 88 96 77.9264 96 65.5C96 53.0736 85.9264 43 73.5 43C61.0736 43 51 53.0736 51 65.5C51 77.9264 61.0736 88 73.5 88ZM73.5 95C89.7924 95 103 81.7924 103 65.5C103 49.2076 89.7924 36 73.5 36C57.2076 36 44 49.2076 44 65.5C44 81.7924 57.2076 95 73.5 95Z" fill="black"/>
</svg>
