<svg width="42" height="42" viewBox="0 0 42 42" fill="none" xmlns="http://www.w3.org/2000/svg">
<path d="M25.1895 7.66069L25.1895 7.66066L25.1846 7.64794C24.8647 6.8223 24.418 6.09413 23.7897 5.56715C23.139 5.02149 22.3617 4.75 21.5156 4.75C20.6683 4.75 19.9026 5.06305 19.2415 5.58223L19.2309 5.59061L19.2204 5.59921C18.5722 6.13141 18.1073 6.82064 17.8097 7.62269C17.8094 7.62339 17.8091 7.62408 17.8089 7.62478L9.36378 30.1851C9.00388 31.1148 8.75 31.9845 8.75 32.6891C8.75 34.2679 9.75973 35.4632 11.1449 36.3285C11.8721 36.7969 12.6888 37.2096 13.4735 37.2096C14.1468 37.2096 14.8157 37.0058 15.3441 36.4945L15.3498 36.489L15.3554 36.4834C15.6823 36.159 15.9769 35.7882 16.1671 35.3668C16.3209 35.0631 16.5014 34.6335 16.7043 34.1098L16.7072 34.1025L16.7099 34.0951L18.0337 30.5474H24.9663L26.2901 34.0951L26.2928 34.1025L26.2957 34.1098L26.5695 34.8164L26.7651 35.3211L26.7799 35.3593L26.7972 35.3965C26.9971 35.8264 27.2829 36.2042 27.6246 36.5349L27.6425 36.5522L27.6611 36.5688C28.1828 37.0349 28.8216 37.25 29.4952 37.25C30.2961 37.25 31.1207 36.8427 31.8627 36.364C33.2441 35.4728 34.25 34.2642 34.25 32.6891C34.25 31.9844 33.996 31.1146 33.6361 30.1847L25.1895 7.66069ZM21.7704 22.0717H21.22L21.4932 21.3402L21.7704 22.0717Z" stroke="black" stroke-width="2.5"/>
</svg>
