<?xml version="1.0" encoding="utf-8"?>
<!-- Generator: Adobe Illustrator 24.3.0, SVG Export Plug-In . SVG Version: 6.00 Build 0)  -->
<svg version="1.1" id="Layer_1" xmlns="http://www.w3.org/2000/svg" xmlns:xlink="http://www.w3.org/1999/xlink" x="0px" y="0px"
	 viewBox="0 0 44 44" style="enable-background:new 0 0 44 44;" xml:space="preserve">
<style type="text/css">
	.st0{fill:none;stroke:#EF8F00;stroke-miterlimit:10;}
</style>
<path class="st0" d="M17,31c-0.2,0-0.3,0-0.4-0.1c-0.3-0.2-0.4-0.5-0.3-0.8l1-5.8v-0.1l-4-4.1c-0.2-0.2-0.3-0.6-0.2-0.9
	s0.3-0.5,0.6-0.5l5.6-0.9c0,0,0.1,0,0.1-0.1l2.5-5.3c0.1-0.3,0.4-0.5,0.7-0.5s0.6,0.2,0.7,0.5l0,0l2.5,5.3c0,0,0,0.1,0.1,0.1
	l5.6,0.9c0.3,0,0.5,0.3,0.6,0.5c0.1,0.3,0,0.6-0.2,0.9l-4,4.1v0.1l0.9,5.8c0.1,0.3-0.1,0.6-0.3,0.8c-0.2,0.2-0.6,0.2-0.8,0l-5-2.8
	h-0.1l-5,2.8C17.2,31,17.1,31,17,31z"/>
</svg>
