<svg width="23" height="28" viewBox="0 0 23 28" fill="none" xmlns="http://www.w3.org/2000/svg">
<path d="M11.4029 13.1921C13.2153 13.1921 14.7844 12.5421 16.0669 11.2596C17.349 9.97736 17.9992 8.40842 17.9992 6.59586C17.9992 4.78392 17.3492 3.21477 16.0667 1.93208C14.7842 0.650016 13.2151 0 11.4029 0C9.59035 0 8.02141 0.650016 6.73914 1.93229C5.45687 3.21456 4.80664 4.78371 4.80664 6.59586C4.80664 8.40842 5.45687 9.97757 6.73914 11.2598C8.02183 12.5419 9.59098 13.1921 11.4029 13.1921V13.1921ZM7.87411 3.06705C8.85801 2.08314 10.0122 1.60488 11.4029 1.60488C12.7934 1.60488 13.9478 2.08314 14.9319 3.06705C15.9158 4.05116 16.3943 5.20556 16.3943 6.59586C16.3943 7.98657 15.9158 9.14076 14.9319 10.1249C13.9478 11.109 12.7934 11.5873 11.4029 11.5873C10.0126 11.5873 8.85843 11.1088 7.87411 10.1249C6.88999 9.14097 6.41152 7.98657 6.41152 6.59586C6.41152 5.20556 6.88999 4.05116 7.87411 3.06705Z" fill="black"/>
<path d="M22.9446 21.0587C22.9076 20.5251 22.8328 19.943 22.7227 19.3283C22.6115 18.709 22.4684 18.1235 22.297 17.5884C22.1199 17.0353 21.8794 16.4892 21.5816 15.9658C21.273 15.4225 20.9103 14.9495 20.5033 14.5602C20.0777 14.153 19.5566 13.8256 18.954 13.5868C18.3535 13.3492 17.688 13.2288 16.9761 13.2288C16.6966 13.2288 16.4262 13.3436 15.9041 13.6835C15.5827 13.8931 15.2068 14.1354 14.7873 14.4035C14.4285 14.6321 13.9425 14.8463 13.3422 15.0402C12.7566 15.2297 12.1619 15.3258 11.5748 15.3258C10.9881 15.3258 10.3935 15.2297 9.80738 15.0402C9.20771 14.8465 8.72151 14.6323 8.36338 14.4037C7.9478 14.1382 7.5717 13.8958 7.24555 13.6833C6.72382 13.3433 6.45345 13.2286 6.17389 13.2286C5.46182 13.2286 4.79655 13.3492 4.19626 13.587C3.59409 13.8254 3.07278 14.1528 2.64675 14.5604C2.23973 14.9499 1.87701 15.4227 1.56862 15.9658C1.27129 16.4892 1.03059 17.0351 0.85341 17.5886C0.682287 18.1237 0.539162 18.709 0.428005 19.3283C0.317684 19.9421 0.243092 20.5244 0.20611 21.0593C0.169754 21.5823 0.151367 22.1266 0.151367 22.6765C0.151367 24.1061 0.605814 25.2634 1.50196 26.117C2.38704 26.9592 3.55794 27.3863 4.9823 27.3863H18.169C19.5929 27.3863 20.7638 26.9592 21.6491 26.117C22.5455 25.2641 22.9999 24.1063 22.9999 22.6763C22.9997 22.1245 22.9811 21.5802 22.9446 21.0587V21.0587ZM20.5426 24.9542C19.9577 25.5108 19.1813 25.7814 18.1688 25.7814H4.9823C3.96956 25.7814 3.19313 25.5108 2.60852 24.9544C2.03497 24.4085 1.75624 23.6632 1.75624 22.6765C1.75624 22.1634 1.77317 21.6567 1.80702 21.1703C1.84003 20.6931 1.90752 20.1688 2.0076 19.6118C2.10643 19.0616 2.23221 18.5454 2.38181 18.078C2.52536 17.6298 2.72113 17.186 2.96392 16.7585C3.19564 16.3511 3.46225 16.0015 3.75644 15.7198C4.03161 15.4564 4.37846 15.2407 4.78715 15.079C5.16512 14.9294 5.5899 14.8475 6.05103 14.8352C6.10724 14.8651 6.20732 14.9221 6.36946 15.0278C6.69938 15.2428 7.07965 15.4881 7.50004 15.7566C7.97392 16.0587 8.58444 16.3316 9.31386 16.5671C10.0596 16.8082 10.8201 16.9307 11.575 16.9307C12.3299 16.9307 13.0907 16.8082 13.836 16.5673C14.566 16.3314 15.1763 16.0587 15.6508 15.7562C16.081 15.4812 16.4507 15.243 16.7806 15.0278C16.9427 14.9223 17.0428 14.8651 17.099 14.8352C17.5603 14.8475 17.9851 14.9294 18.3633 15.079C18.7718 15.2407 19.1186 15.4566 19.3938 15.7198C19.688 16.0013 19.9546 16.3508 20.1863 16.7587C20.4293 17.186 20.6253 17.63 20.7686 18.0777C20.9184 18.5458 21.0444 19.0619 21.1431 19.6116C21.2429 20.1697 21.3106 20.6941 21.3436 21.1705V21.1709C21.3777 21.6554 21.3948 22.1619 21.395 22.6765C21.3948 23.6634 21.1161 24.4085 20.5426 24.9542V24.9542Z" fill="black"/>
</svg>
