<?xml version="1.0" encoding="utf-8"?>
<!-- Generator: Adobe Illustrator 24.3.0, SVG Export Plug-In . SVG Version: 6.00 Build 0)  -->
<svg version="1.1" id="Layer_1" xmlns="http://www.w3.org/2000/svg" xmlns:xlink="http://www.w3.org/1999/xlink" x="0px" y="0px"
	 viewBox="0 0 44 44" style="enable-background:new 0 0 44 44;" xml:space="preserve">
<style type="text/css">
	.st0{clip-path:url(#SVGID_2_);}
	.st1{fill:#EF8F00;}
</style>
<g>
	<defs>
		<rect id="SVGID_1_" y="0" width="44" height="44"/>
	</defs>
	<clipPath id="SVGID_2_">
		<use xlink:href="#SVGID_1_"  style="overflow:visible;"/>
	</clipPath>
	<g class="st0">
		<g transform="matrix(0.10000000149011612,0,0,0.10000000149011612,9.885000228881836,8.843999862670898)">
			<g transform="matrix(1,0,0,1,125.01499938964844,126.01599884033203)">
				<path class="st1" d="M-54,95.5c-1.6,0-3.1-0.5-4.5-1.4c-2.6-1.8-3.9-5-3.4-8.2l9.5-58.3c0.1-0.5-0.1-1-0.4-1.3L-93-15.1
					c-2.2-2.2-2.9-5.5-1.9-8.5c1-2.9,3.4-5,6.4-5.5l55.6-8.5c0.3-0.1,0.7-0.3,0.8-0.7l24.9-53.1C-5.8-94.2-3.1-96,0-96
					s5.8,1.8,7.2,4.6h0l24.9,53.1c0.2,0.4,0.5,0.6,0.8,0.7L88.5-29c3,0.5,5.4,2.5,6.4,5.5c1,3,0.3,6.3-1.9,8.5L52.7,26.2
					c-0.3,0.3-0.5,0.8-0.4,1.3l9.5,58.3c0.5,3.2-0.8,6.3-3.4,8.2c-2.5,1.7-5.6,1.9-8.3,0.5L0.5,66.9c-0.3-0.2-0.6-0.2-0.9,0
					l-49.8,27.5C-51.4,95.2-52.7,95.5-54,95.5z"/>
			</g>
		</g>
	</g>
</g>
</svg>
